<?xml version="1.0" encoding="iso-8859-1"?>
<!-- Generator: Adobe Illustrator 17.1.0, SVG Export Plug-In . SVG Version: 6.00 Build 0)  -->
<!DOCTYPE svg PUBLIC "-//W3C//DTD SVG 1.1//EN" "http://www.w3.org/Graphics/SVG/1.1/DTD/svg11.dtd">
<svg version="1.1" id="Capa_1" xmlns="http://www.w3.org/2000/svg" xmlns:xlink="http://www.w3.org/1999/xlink" x="0px" y="0px"
	 viewBox="0 0 198.04 198.04" style="enable-background:new 0 0 198.04 198.04;" xml:space="preserve">
<path d="M180.728,18.401c-0.318-2.11-1.94-3.785-4.038-4.171L99.926,0.083c-0.6-0.11-1.213-0.11-1.813,0L21.35,14.23
	c-2.098,0.386-3.72,2.062-4.038,4.171c-0.327,2.169-7.841,53.636,7.259,98.157c15.281,45.056,69.502,79.289,71.803,80.724
	c0.81,0.505,1.729,0.758,2.646,0.758s1.837-0.252,2.646-0.758c2.301-1.435,56.522-35.668,71.803-80.724
	C188.569,72.037,181.055,20.57,180.728,18.401z M163.76,112.515c-13.246,38.292-60.142,67.32-62.132,68.537
	c-0.801,0.49-1.704,0.734-2.608,0.734s-1.809-0.245-2.608-0.734c-1.99-1.217-48.885-30.245-62.132-68.537
	C21.213,74.742,27.712,31.1,27.995,29.26c0.324-2.11,1.952-3.781,4.053-4.16l66.084-11.94c0.588-0.106,1.189-0.106,1.777,0
	l66.084,11.94c2.101,0.379,3.729,2.05,4.053,4.16C170.329,31.1,176.828,74.742,163.76,112.515z M87.662,58.12h6.358v23.745h-6.358
	c-6.545,0-11.869-5.325-11.869-11.875C75.793,63.445,81.117,58.12,87.662,58.12z M104.02,91.865h6.356
	c6.546,0,11.872,5.326,11.872,11.872s-5.326,11.872-11.872,11.872h-6.356V91.865z M160.602,34.288L99.02,23.162L37.438,34.288
	c-1.218,10.945-3.907,45.474,6.293,74.958C54.11,139.249,89.14,164.25,99.02,170.831c9.881-6.581,44.911-31.583,55.289-61.585
	C164.509,79.762,161.821,45.234,160.602,34.288z M110.377,81.865c12.061,0,21.872,9.812,21.872,21.872s-9.812,21.872-21.872,21.872
	h-6.356v6.638c0,2.761-2.238,5-5,5s-5-2.239-5-5v-6.638H70.793c-2.762,0-5-2.239-5-5s2.238-5,5-5H94.02V91.865h-6.358
	c-12.059,0-21.869-9.811-21.869-21.869c0-12.065,9.811-21.875,21.869-21.875h6.358v-4.816c0-2.761,2.238-5,5-5s5,2.239,5,5v4.816
	h23.229c2.762,0,5,2.239,5,5s-2.238,5-5,5H104.02v23.745H110.377z"/>
<g>
</g>
<g>
</g>
<g>
</g>
<g>
</g>
<g>
</g>
<g>
</g>
<g>
</g>
<g>
</g>
<g>
</g>
<g>
</g>
<g>
</g>
<g>
</g>
<g>
</g>
<g>
</g>
<g>
</g>
</svg>
